<?xml version="1.0" standalone="no"?>
<!DOCTYPE svg PUBLIC "-//W3C//DTD SVG 20010904//EN"
 "http://www.w3.org/TR/2001/REC-SVG-20010904/DTD/svg10.dtd">
<svg version="1.0" xmlns="http://www.w3.org/2000/svg"
 width="200.000000pt" height="200.000000pt" viewBox="0 0 200.000000 200.000000"
 preserveAspectRatio="xMidYMid meet">
<metadata>
Created by potrace 1.10, written by Peter Selinger 2001-2011
</metadata>
<g transform="translate(0.000000,200.000000) scale(0.100000,-0.100000)"
fill="#ffffff" stroke="none">
<path d="M490 1790 c0 -40 0 -40 -40 -40 -40 0 -40 0 -40 -40 0 -40 0 -40 -40
-40 -38 0 -40 -2 -40 -30 0 -28 2 -30 40 -30 l40 0 0 -50 0 -50 -40 0 c-38 0
-40 -2 -40 -30 0 -28 2 -30 40 -30 l40 0 0 -45 c0 -45 0 -45 35 -45 l35 0 0
-70 c0 -70 0 -70 -25 -64 -15 4 -32 1 -40 -6 -13 -11 -15 -3 -15 58 l0 70 -37
3 -38 4 0 -75 0 -75 83 0 84 0 -7 -84 -7 -83 45 3 44 4 -5 -44 -5 -44 45 5 45
5 -5 -45 -5 -45 44 5 44 5 0 -84 0 -83 -44 0 -43 0 3 -42 4 -43 -84 3 -83 4 3
-44 4 -43 -42 4 -43 3 0 -281 c0 -195 3 -281 11 -281 7 0 10 38 7 120 l-3 120
73 0 72 0 0 -120 c0 -66 3 -120 8 -120 11 0 12 233 0 248 -6 7 -35 12 -74 12
l-64 0 0 135 c0 135 0 135 23 135 29 0 57 29 57 58 0 20 5 22 64 22 71 0 96
14 96 56 0 17 5 24 20 24 20 0 21 -5 20 -232 0 -128 1 -285 2 -348 1 -63 5 45
8 240 l5 355 100 -3 c55 -2 153 -4 218 -5 90 -2 120 -6 127 -17 5 -8 6 -18 4
-22 -12 -19 31 -43 80 -44 28 -1 58 -3 66 -3 13 -1 15 -27 14 -173 l-1 -173
-26 -3 c-39 -5 -46 -20 -47 -117 -2 -132 -1 -145 10 -145 6 0 10 47 10 120 l0
120 33 0 32 0 -3 -120 c-3 -82 0 -120 7 -120 8 0 11 97 11 320 l0 320 -80 0
-80 0 0 40 0 40 -228 0 -227 0 4 82 c4 89 -6 108 -56 108 -19 0 -23 5 -23 28
0 36 -16 52 -52 52 -24 0 -28 4 -28 28 0 15 -7 36 -15 46 -8 11 -15 15 -15 9
0 -13 -42 -4 -52 11 -23 34 -11 36 222 36 l230 0 0 80 0 80 40 0 40 0 0 -81 0
-81 198 3 197 4 0 155 0 155 -197 4 -198 3 0 -41 0 -41 -40 0 c-40 0 -40 0
-40 40 l0 40 -160 0 -160 0 0 40 0 40 355 0 355 0 -6 -24 c-3 -14 -1 -33 6
-43 9 -14 10 -5 6 46 -3 35 -6 106 -6 157 l0 94 -40 0 c-40 0 -40 0 -40 40 l0
40 -70 0 -70 0 0 -40 0 -40 -90 0 -90 0 0 40 0 40 -70 0 -70 0 0 -40 0 -40
-50 0 -50 0 0 40 c0 38 -2 40 -30 40 -28 0 -30 -2 -30 -40 l0 -40 -50 0 -50 0
0 40 c0 38 -2 40 -30 40 -28 0 -30 -2 -30 -40z m432 -14 c-6 -36 26 -50 117
-51 77 -1 88 2 104 21 9 12 17 29 17 38 0 9 8 17 18 17 68 5 67 5 64 -23 -4
-31 28 -59 59 -51 13 4 19 0 20 -13 2 -21 1 -130 0 -154 -1 -13 -47 -15 -338
-18 -243 -2 -340 -6 -351 -14 -10 -8 -12 -24 -9 -50 l5 -38 -97 0 c-84 0 -99
3 -114 20 -16 19 -16 21 1 38 24 24 28 99 7 122 -14 15 -14 20 0 46 8 16 15
35 15 42 0 6 7 13 15 13 32 3 36 4 44 18 8 13 51 7 51 -7 0 -4 22 -7 50 -7 37
0 53 5 64 20 14 20 14 20 33 0 13 -15 31 -21 63 -22 51 -1 80 18 80 53 0 25
21 34 60 24 16 -5 24 -13 22 -24z m-80 -366 l98 0 0 -28 c0 -37 17 -52 60 -52
43 0 60 15 60 52 l0 28 133 0 c72 0 149 -3 170 -6 l37 -7 0 -117 0 -117 -47
-9 c-27 -5 -103 -8 -170 -6 l-123 3 0 67 c0 78 -9 92 -60 92 -51 0 -60 -14
-60 -90 l0 -67 -176 -6 c-97 -4 -180 -5 -185 -1 -5 3 -9 52 -9 109 0 60 -4
106 -10 110 -6 4 -35 9 -65 12 -47 5 -55 9 -55 26 0 20 4 20 152 14 83 -4 195
-7 250 -7z m-282 -165 l0 -114 -22 8 c-13 5 -23 17 -24 27 0 11 -3 35 -7 54
-3 19 -8 59 -10 88 l-4 52 33 0 34 0 0 -115z m-193 13 c-2 -13 -4 -3 -4 22 0
25 2 35 4 23 2 -13 2 -33 0 -45z"/>
<path d="M675 1383 c-16 -3 -36 -9 -42 -15 -17 -14 -18 -169 -1 -186 17 -17
239 -17 256 0 16 16 16 180 0 196 -12 12 -145 15 -213 5z m205 -103 l0 -80
-120 0 -120 0 0 80 0 80 120 0 120 0 0 -80z"/>
<path d="M709 1328 c-2 -13 -1 -43 2 -68 5 -41 6 -39 7 23 2 67 -2 87 -9 45z"/>
<path d="M1112 1378 c-16 -16 -16 -180 0 -196 17 -17 239 -17 256 0 16 16 16
180 0 196 -8 8 -51 12 -128 12 -77 0 -120 -4 -128 -12z m248 -98 l0 -80 -120
0 -120 0 0 80 0 80 120 0 120 0 0 -80z"/>
<path d="M952 1480 c0 -14 2 -19 5 -12 2 6 2 18 0 25 -3 6 -5 1 -5 -13z"/>
<path d="M1346 1104 c-3 -9 -6 -38 -6 -65 0 -46 -6 -55 -33 -50 -24 4 -47 -22
-47 -54 l0 -35 -67 1 c-41 1 -69 -3 -71 -10 -2 -6 -21 -11 -43 -11 l-39 0 0
-77 c0 -42 2 -74 5 -71 3 3 6 35 6 71 1 58 3 64 19 60 16 -4 20 -16 22 -66 2
-37 8 -62 16 -65 9 -3 12 16 12 72 l0 76 80 0 80 0 0 40 c0 40 0 40 40 40 l40
0 0 80 c0 81 -3 93 -14 64z"/>
<path d="M711 1095 c-1 -11 -3 -46 -4 -78 -2 -63 8 -77 52 -77 17 0 21 -6 21
-30 0 -33 25 -52 57 -44 18 5 21 -1 30 -68 l10 -73 2 78 1 77 -40 0 c-40 0
-40 0 -40 40 0 40 0 40 -40 40 l-39 0 -4 78 c-1 42 -4 68 -6 57z"/>
<path d="M960 840 c0 -35 3 -40 23 -39 18 1 19 2 4 6 -15 4 -18 12 -15 39 2
19 0 34 -4 34 -4 0 -8 -18 -8 -40z"/>
<path d="M870 485 c-8 -9 -10 -29 -7 -50 6 -34 5 -35 -29 -35 -33 0 -34 -1
-34 -40 0 -22 -4 -40 -10 -40 -14 0 -12 -72 3 -90 7 -8 23 -15 37 -15 16 0 24
-5 22 -14 -1 -7 4 -24 13 -37 14 -22 22 -24 94 -24 90 0 106 10 99 65 -4 34
-3 35 29 35 32 0 33 2 33 38 0 21 3 42 7 46 4 4 8 23 10 42 2 36 -16 54 -56
54 -16 0 -21 6 -21 26 0 40 -26 53 -106 54 -52 0 -75 -4 -84 -15z m170 -45 c0
-40 0 -40 40 -40 40 0 40 0 40 -40 0 -40 0 -40 -40 -40 -22 0 -40 5 -40 10 0
6 -18 10 -40 10 -22 0 -40 -4 -40 -10 0 -5 -18 -10 -40 -10 l-40 0 0 80 0 80
80 0 80 0 0 -40z m-190 -75 c0 -8 -7 -15 -15 -15 -8 0 -15 7 -15 15 0 8 7 15
15 15 8 0 15 -7 15 -15z m30 -85 c0 -40 0 -40 -40 -40 -40 0 -40 0 -40 40 0
40 0 40 40 40 40 0 40 0 40 -40z m160 -40 l0 -80 -80 0 -80 0 0 40 c0 40 0 40
40 40 40 0 40 0 40 40 0 40 0 40 40 40 l40 0 0 -80z m-110 40 c0 -5 -4 -10
-10 -10 -5 0 -10 5 -10 10 0 6 5 10 10 10 6 0 10 -4 10 -10z m170 -5 c0 -8 -7
-15 -15 -15 -8 0 -15 7 -15 15 0 8 7 15 15 15 8 0 15 -7 15 -15z"/>
<path d="M975 230 c3 -5 15 -10 25 -10 10 0 22 5 25 10 4 6 -7 10 -25 10 -18
0 -29 -4 -25 -10z"/>
<path d="M480 116 c0 -64 3 -115 8 -112 8 5 7 215 -2 224 -3 3 -6 -47 -6 -112z"/>
</g>
</svg>
