<svg xmlns="http://www.w3.org/2000/svg" xmlns:xlink="http://www.w3.org/1999/xlink" preserveAspectRatio="xMidYMid" width="237" height="248" viewBox="0 0 237 248">
  <defs>
    <style>
      .cls-1 {
        fill: #fff;
        fill-rule: evenodd;
      }
    </style>
  </defs>
  <path d="M167.885,189.000 L51.885,189.000 L51.885,73.000 L89.885,73.000 L89.885,47.000 L25.885,47.000 L25.885,213.000 L191.885,213.000 L191.885,148.000 L167.885,148.000 L167.885,189.000 Z" class="cls-1"/>
  <path d="M201.022,39.187 C182.926,21.091 153.581,21.085 135.481,39.184 C117.389,57.277 95.412,140.387 95.412,140.387 C95.412,140.387 182.920,122.812 201.019,104.722 C219.112,86.619 219.109,57.274 201.022,39.187 ZM168.257,99.428 C153.078,99.428 140.782,87.128 140.775,71.950 C140.782,56.775 153.078,44.475 168.254,44.478 C183.422,44.475 195.726,56.775 195.731,71.953 C195.726,87.125 183.425,99.425 168.257,99.428 Z" class="cls-1"/>
</svg>
